# xmcd CD database file
#
# Track frame offsets:
#	150
#	4589
#	20970
#	38185
#	58718
#	76135
#	107542
#	124719
#	142451
#	166613
#	182610
#	228428
#
# Disc length: 3307 seconds
#
# Revision: 0
# Processed by: cddbd v1.5.2PL0 Copyright (c) Steve Scherf et al.
# Submitted via: CDex 1.51
#
DISCID=960ce90c
DTITLE=The Absynth Quintet - Indigo Shoes
DYEAR=2008
DGENRE=Jazz
TTITLE0=Prelude
TTITLE1=Gadjo Train
TTITLE2=Let's Just Cuddle Tonight
TTITLE3=Little Blue Bike
TTITLE4=the Rev Sam
TTITLE5=DCA
TTITLE6=Dorado's Chest
TTITLE7=Indigo Shoes
TTITLE8=LMNOP
TTITLE9=LiamsmaiL
TTITLE10=Majagid
TTITLE11=Out Takes
EXTD=YEAR: 2008
EXTT0=
EXTT1=
EXTT2=
EXTT3=
EXTT4=
EXTT5=
EXTT6=
EXTT7=
EXTT8=
EXTT9=
EXTT10=
EXTT11=
PLAYORDER=
